# AST/ASF file generated using VICON BodyLanguage
# -----------------------------------------------
:version 1.10
:name VICON
:units
  mass 1.0
  length 0.45
  angle deg
:documentation
   .ast/.asf automatically generated from VICON data using
   VICON BodyBuilder and BodyLanguage model FoxedUp or BRILLIANT.MOD
:root
   order TX TY TZ RX RY RZ
   axis XYZ
   position 0 0 0  
   orientation 0 0 0 
:bonedata
  begin
     id 1 
     name lhipjoint
     direction 0.653368 -0.678499 0.335782 
     length 2.51848 
     axis 0 0 0  XYZ
  end
  begin
     id 2 
     name lfemur
     direction 0.34202 -0.939693 0  
     length 6.57749  
     axis 0 0 20  XYZ
    dof rx ry rz
    limits (-160.0 20.0)
           (-70.0 70.0)
           (-60.0 70.0)
  end
  begin
     id 3 
     name ltibia
     direction 0.34202 -0.939693 0   
     length 7.94618   
     axis 0 0 20   XYZ
    dof rx
    limits (-10.0 170.0)
  end
  begin
     id 4 
     name lfoot
     direction 0.0811271 -0.222895 0.971461   
     length 2.31339   
     axis -90 7.62852e-016 20   XYZ
    dof rx rz
    limits (-45.0 90.0)
           (-70.0 20.0)
  end
  begin
     id 5 
     name ltoes
     direction 1.53568e-011 -4.21885e-011 1   
     length 1.15935   
     axis -90 7.62852e-016 20   XYZ
    dof rx
    limits (-90.0 20.0)
  end
  begin
     id 6 
     name rhipjoint
     direction -0.640058 -0.688614 0.340788   
     length 2.48149  
     axis 0 0 0  XYZ 
  end
  begin
     id 7 
     name rfemur
     direction -0.34202 -0.939693 0   
     length 6.57875   
     axis 0 0 -20   XYZ
    dof rx ry rz
    limits (-160.0 20.0)
           (-70.0 70.0)
           (-70.0 60.0)
  end
  begin
     id 8 
     name rtibia
     direction -0.34202 -0.939693 0   
     length 7.977   
     axis 0 0 -20   XYZ
    dof rx
    limits (-10.0 170.0)
 end
 begin
     id 9 
     name rfoot
     direction -0.0979793 -0.269196 0.958089   
     length 2.19857  
     axis -90 -7.62852e-016 -20   XYZ
    dof rx rz
    limits (-45.0 90.0)
           (-20.0 70.0)
  end
  begin
     id 10 
     name rtoes
     direction -1.53556e-011 -4.21868e-011 1   
     length 1.09838   
     axis -90 -7.62852e-016 -20   XYZ
    dof rx
    limits (-90.0 20.0)
  end
  begin
     id 11 
     name lowerback
     direction 0.0149039 0.998517 -0.0523597   
     length 2.10809   
     axis 0 0 0   XYZ
    dof rx ry rz
    limits (-20.0 45.0)
           (-30.0 30.0)
           (-30.0 30.0)
  end
  begin
     id 12 
     name upperback
     direction -0.00882659 0.999418 -0.0329624   
     length 2.1102   
     axis 0 0 0   XYZ
    dof rx ry rz
    limits (-20.0 45.0)
           (-30.0 30.0)
           (-30.0 30.0)
  end
  begin
     id 13 
     name thorax
     direction -0.0165585 0.999826 -0.0085833   
     length 2.11039   
     axis 0 0 0   XYZ
    dof rx ry rz
    limits (-20.0 45.0)
           (-30.0 30.0)
           (-30.0 30.0)
  end
  begin
     id 14 
     name lowerneck
     direction -0.0130877 0.999911 0.00260353   
     length 1.73253   
     axis 0 0 0   XYZ
    dof rx ry rz
    limits (-20.0 45.0)
           (-30.0 30.0)
           (-30.0 30.0)
  end
  begin
     id 15 
     name upperneck
     direction -0.0348454 0.928205 -0.370435   
     length 1.66692   
     axis 0 0 0   XYZ
    dof rx ry rz
    limits (-20.0 45.0)
           (-30.0 30.0)
           (-30.0 30.0)
  end
  begin
     id 16
     name head
     direction -0.00807754 0.992494 -0.122026  
     length 1.72765  
     axis 0 0 0   XYZ
    dof rx ry rz
    limits (-20.0 45.0)
           (-30.0 30.0)
           (-30.0 30.0)
  end
  begin
     id 17 
     name lclavicle
     direction 0.987582 0.144023 0.0627671  
     length 3.49235  
     axis 0 0 0   XYZ
    dof ry rz
    limits (-20.0 10.0)
           (0.0 20.0)
  end
  begin
     id 18 
     name lhumerus
     direction 1 -4.48958e-011 -1.45183e-018   
     length 5.41917   
     axis 180 -30 -90   XYZ
    dof rx ry rz
    limits (-60.0 90.0)
           (-90.0 90.0)
           (-90.0 90.0)
  end
  begin
     id 19
     name lradius
     direction 1 -4.48999e-011 5.75106e-027   
     length 2.44373   
     axis 180 -30 -90   XYZ
    dof rx
    limits (-10.0 170.0)
  end
  begin
     id 20
     name lwrist
     direction 1 -4.48987e-011 1.53461e-026   
     length 1.22186   
     axis -1.09697e-014 90 90   XYZ
    dof ry
    limits (-180.0 0.0)
 end
  begin
     id 21 
     name lhand
     direction 1 -4.48881e-011 3.06923e-026   
     length 0.727502   
     axis -1.95843e-014 90 90   XYZ
    dof rx rz
    limits (-90.0 90.0)
           (-45.0 45.0)
  end
  begin
     id 22 
     name lfingers
     direction 1 -4.48907e-011 6.13845e-026   
     length 0.586531   
     axis -3.91686e-014 90 90   XYZ
    dof rx
    limits (0.0 90.0)
  end
  begin
     id 23
     name lthumb
     direction 0.707107 -6.3487e-011 0.707107   
     length 0.842145   
     axis -90 45 2.85299e-015   XYZ
    dof rx rz
    limits (-45.0 45.0)
           (-45.0 45.0)
  end
  begin
     id 24 
     name rclavicle
     direction -0.980998 0.169556 0.0943023   
     length 3.29272  
     axis 0 0 0   XYZ 
    dof ry rz
    limits (-10.0 20.0)
           (-20.0 0.0)
  end
  begin
     id 25 
     name rhumerus
     direction -1 -1.83355e-005 2.45537e-005  
     length 5.58976   
     axis 180 30 90   XYZ
    dof rx ry rz
    limits (-90.0 60.0)
           (-90.0 90.0)
           (-90.0 90.0)
  end
  begin
     id 26 
     name rradius
     direction -1 -4.48967e-011 5.97228e-027   
     length 2.4806   
     axis 180 30 90   XYZ
    dof rx
    limits (-10.0 170.0)
  end
  begin
     id 27 
     name rwrist
     direction -1 -4.48963e-011 1.53461e-026   
     length 1.2403   
     axis -1.09697e-014 -90 -90   XYZ
    dof ry
    limits (-180.0 0.0)
  end
  begin
     id 28
     name rhand
     direction -1 -4.48881e-011 3.06923e-026   
     length 0.816009   
     axis -1.95843e-014 -90 -90   XYZ
    dof rx rz
    limits (-90.0 90.0)
           (-45.0 45.0)
  end
  begin
     id 29
     name rfingers
     direction -1 -4.49018e-011 6.13845e-026   
     length 0.657887   
     axis -3.91686e-014 -90 -90   XYZ
    dof rx
    limits (0.0 90.0)
  end
  begin
     id 30
     name rthumb
     direction -0.707107 -6.34872e-011 0.707107   
     length 0.944599   
     axis -90 -45 -2.85299e-015   XYZ
    dof rx rz
    limits (-45.0 45.0)
           (-45.0 45.0)
  end
:hierarchy
  begin
    root lhipjoint rhipjoint lowerback
    lhipjoint lfemur
    lfemur ltibia
    ltibia lfoot
    lfoot ltoes
    rhipjoint rfemur
    rfemur rtibia
    rtibia rfoot
    rfoot rtoes
    lowerback upperback
    upperback thorax
    thorax lowerneck lclavicle rclavicle
    lowerneck upperneck
    upperneck head
    lclavicle lhumerus
    lhumerus lradius
    lradius lwrist
    lwrist lhand lthumb
    lhand lfingers
    rclavicle rhumerus
    rhumerus rradius
    rradius rwrist
    rwrist rhand rthumb
    rhand rfingers
  end

#!OML:ASF F:\VICON\USERDATA\INSTALL\rory3\rory3.ASF
:FULLY-SPECIFIED
:DEGREES
286
root 0.0364712 16.2969 -4.88147 -160.38 -7.77496 178.75
lowerback -17.004 -0.646468 0.0580817
upperback -5.09013 -1.65842 1.49799
thorax 4.1317 -1.12147 1.19186
lowerneck -11.9858 3.06606 -1.06951
upperneck 43.825 -2.37367 0.95356
head 18.6086 -3.14646 -0.507802
rclavicle 1.22128e-014 2.14687e-014
rhumerus -43.3834 6.62564 -85.5361
rradius 29.5787
rwrist -18.7468
rhand -5.51716 12.0309
rfingers 7.12502
rthumb 20.2965 -16.9286
lclavicle 1.22128e-014 2.14687e-014
lhumerus -49.891 -0.867177 85.8001
lradius 65.3317
lwrist -5.69176
lhand 5.04146 20.1598
lfingers 7.12502
lthumb 30.4095 47.6721
rfemur -45.802 4.59341 30.7437
rtibia 44.247
rfoot -48.8633 -30.4457
rtoes 48.7428
lfemur -22.0325 15.7447 -27.6493
ltibia 52.5133
lfoot 28.6174 16.1509
ltoes 20.0669
287
root 0.0189464 16.3033 -4.89794 -160.545 -8.18825 178.882
lowerback -17.227 -0.750741 0.354194
upperback -4.89458 -1.83069 1.55054
thorax 4.4558 -1.19531 1.03715
lowerneck -12.0812 3.07693 -1.06841
upperneck 43.7643 -2.32746 1.00533
head 18.5966 -3.10547 -0.470085
rclavicle 2.00027e-014 7.95139e-016
rhumerus -43.1241 6.66999 -85.5332
rradius 29.5049
rwrist -18.5737
rhand -5.70239 12.3717
rfingers 7.12502
rthumb 20.1184 -16.6067
lclavicle 2.00027e-014 7.95139e-016
lhumerus -49.6033 -0.872434 85.83
lradius 65.2555
lwrist -5.59603
lhand 4.92155 20.13
lfingers 7.12502
lthumb 30.2951 47.6634
rfemur -45.537 3.84571 31.0834
rtibia 44.2
rfoot -48.415 -30.4602
rtoes 48.4957
lfemur -21.6674 15.5291 -27.3558
ltibia 52.4418
lfoot 28.906 15.2888
ltoes 18.4482
288
root 0.0144313 16.3046 -4.91362 -160.953 -8.32055 178.913
lowerback -16.8812 -0.794316 0.329469
upperback -4.9169 -1.8722 1.58219
thorax 4.25064 -1.21242 1.08444
lowerneck -11.7948 3.12592 -1.05141
upperneck 43.8004 -2.32908 1.01826
head 18.5403 -3.12555 -0.469935
rclavicle 1.01629e-014 -9.54166e-015
rhumerus -43.4358 6.84069 -85.6325
rradius 29.7428
rwrist -18.7282
rhand -5.77291 12.2785
rfingers 7.12502
rthumb 20.0506 -16.7069
lclavicle 1.01629e-014 -9.54166e-015
lhumerus -49.7841 -0.889962 85.8325
lradius 65.2778
lwrist -5.64366
lhand 4.9816 20.2073
lfingers 7.12502
lthumb 30.3524 47.7302
rfemur -44.9943 3.9303 31.0657
rtibia 44.1712
rfoot -48.7898 -30.4704
rtoes 48.9511
lfemur -21.0625 15.5724 -27.1303
ltibia 52.3137
lfoot 29.2288 14.7978
ltoes 17.3133
289
root 0.00812665 16.3035 -4.90561 -160.563 -8.01587 178.904
lowerback -16.8859 -0.592304 0.34035
upperback -5.26225 -1.65403 1.4988
thorax 3.8801 -1.1291 1.03817
lowerneck -11.5337 3.13333 -1.03952
upperneck 43.87 -2.44504 1.11039
head 18.5172 -3.18397 -0.454241
rclavicle -2.00027e-014 1.43125e-014
rhumerus -43.8332 6.67426 -85.6222
rradius 29.9957
rwrist -18.6001
rhand -5.60163 11.9089
rfingers 7.12502
rthumb 20.2153 -17.0592
lclavicle -2.00027e-014 1.43125e-014
lhumerus -50.0562 -1.01681 85.7804
lradius 65.4626
lwrist -5.78104
lhand 5.24695 20.2767
lfingers 7.12502
lthumb 30.6055 47.7526
rfemur -45.4697 4.24528 30.9188
rtibia 44.1279
rfoot -48.7642 -30.3883
rtoes 49.6661
lfemur -21.5941 15.6843 -27.4275
ltibia 52.284
lfoot 29.0449 15.0279
ltoes 17.4463
290
root -0.00101669 16.3022 -4.90551 -160.559 -8.00801 178.829
lowerback -16.806 -0.54663 0.33447
upperback -5.30526 -1.5917 1.44834
thorax 3.78969 -1.0999 1.00285
lowerneck -11.6107 3.06099 -1.22177
upperneck 43.8943 -2.57354 1.26123
head 18.5611 -3.24505 -0.374748
rclavicle -2.37051e-014 -1.35174e-014
rhumerus -43.8905 6.73404 -85.663
rradius 30.0022
rwrist -18.7382
rhand -5.34339 11.485
rfingers 7.12502
rthumb 20.4635 -17.4566
lclavicle -2.37051e-014 -1.35174e-014
lhumerus -50.1145 -1.09404 85.7751
lradius 65.6443
lwrist -5.96486
lhand 5.4336 20.4562
lfingers 7.12502
lthumb 30.7835 47.8987
rfemur -45.4626 4.16499 30.8234
rtibia 44.0961
rfoot -48.7427 -30.3053
rtoes 50.0476
lfemur -21.4776 15.5772 -27.5362
ltibia 52.2346
lfoot 28.3691 15.9023
ltoes 20.1253
291
root -0.0145443 16.3054 -4.91061 -160.81 -8.32693 179.149
lowerback -16.753 -0.55418 0.797883
upperback -5.14635 -1.65939 1.53628
thorax 3.92296 -1.12234 0.819016
lowerneck -11.9852 2.96971 -1.4607
upperneck 43.9444 -2.67887 1.43231
head 18.7052 -3.28657 -0.272604
rclavicle 3.86388e-015 -7.95139e-015
rhumerus -43.615 6.74678 -85.6155
rradius 29.8269
rwrist -18.7067
rhand -5.25393 11.1847
rfingers 7.12502
rthumb 20.5494 -17.7477
lclavicle 3.86388e-015 -7.95139e-015
lhumerus -49.9789 -1.1406 85.8148
lradius 65.9284
lwrist -5.83369
lhand 5.61452 20.6445
lfingers 7.12502
lthumb 30.9559 48.0544
rfemur -45.1338 3.71478 31.2899
rtibia 44.0333
rfoot -48.5684 -30.3662
rtoes 49.7233
lfemur -21.1412 15.4604 -27.0453
ltibia 52.2497
lfoot 27.9744 16.3646
ltoes 21.8561
292
root -0.0234727 16.3094 -4.9154 -160.931 -8.49956 179.443
lowerback -16.7928 -0.531242 1.12265
upperback -5.05141 -1.68093 1.63705
thorax 4.04016 -1.1277 0.735163
lowerneck -12.1255 2.9157 -1.4168
upperneck 43.9196 -2.68166 1.31199
head 18.7254 -3.28196 -0.336622
rclavicle -2.18663e-015 1.43125e-014
rhumerus -43.4488 6.98537 -85.673
rradius 29.7947
rwrist -19.0043
rhand -5.28698 11.2656
rfingers 7.12502
rthumb 20.5177 -17.6702
lclavicle -2.18663e-015 1.43125e-014
lhumerus -49.988 -1.2487 85.9231
lradius 66.3962
lwrist -5.47112
lhand 5.55598 21.1841
lfingers 7.12502
lthumb 30.9001 48.6045
rfemur -44.9438 3.70092 31.5914
rtibia 43.9825
rfoot -48.6569 -30.3546
rtoes 49.6304
lfemur -21.007 15.506 -26.6698
ltibia 52.2326
lfoot 27.9644 16.4388
ltoes 22.4619
293
root -0.0268559 16.3129 -4.9193 -160.867 -8.57714 179.419
lowerback -16.9123 -0.551127 1.04301
upperback -5.05035 -1.69977 1.64315
thorax 4.10714 -1.13797 0.780342
lowerneck -12.0046 2.91483 -1.23882
upperneck 43.7933 -2.62888 1.1728
head 18.6057 -3.23943 -0.416451
rclavicle 5.10628e-015 8.74653e-015
rhumerus -43.4344 7.17235 -85.8069
rradius 29.7197
rwrist -19.4806
rhand -5.59003 11.7489
rfingers 7.12502
rthumb 20.2264 -17.218
lclavicle 5.10628e-015 8.74653e-015
lhumerus -50.0758 -1.37628 85.9609
lradius 66.7507
lwrist -5.24565
lhand 5.5906 21.5499
lfingers 7.12502
lthumb 30.9331 48.9641
rfemur -44.9577 3.94447 31.4643
rtibia 43.9364
rfoot -48.8971 -30.4674
rtoes 49.7112
lfemur -21.0613 15.4453 -26.6937
ltibia 52.2004
lfoot 28.1441 16.4624
ltoes 22.1587
294
root -0.0323806 16.3132 -4.92401 -160.959 -8.61453 179.367
lowerback -16.9431 -0.617595 0.89191
upperback -4.97854 -1.75495 1.6751
thorax 4.20492 -1.16023 0.887001
lowerneck -11.9376 2.94857 -1.14417
upperneck 43.777 -2.57838 1.10824
head 18.5736 -3.21325 -0.453588
rclavicle -1.22128e-014 -5.56597e-015
rhumerus -43.4264 7.25244 -85.8263
rradius 29.7388
rwrist -19.5532
rhand -5.71092 12.1514
rfingers 7.12502
rthumb 20.1102 -16.8278
lclavicle -1.22128e-014 -5.56597e-015
lhumerus -49.9687 -1.32338 85.9204
lradius 66.7729
lwrist -5.20961
lhand 5.3831 21.2321
lfingers 7.12502
lthumb 30.7353 48.6837
rfemur -44.832 4.25242 31.2712
rtibia 43.9027
rfoot -49.2259 -30.6996
rtoes 49.8071
lfemur -20.8971 15.4333 -26.707
ltibia 52.143
lfoot 28.3548 16.2941
ltoes 21.6512
295
root -0.0374496 16.3124 -4.92753 -161.063 -8.59678 179.292
lowerback -16.8025 -0.685445 0.734311
upperback -5.01361 -1.81567 1.69351
thorax 4.09838 -1.19078 0.987022
lowerneck -11.6857 3.0448 -0.904069
upperneck 43.7183 -2.4276 0.921763
head 18.4585 -3.14672 -0.553958
rclavicle 1.10077e-014 -1.82882e-014
rhumerus -43.6393 7.31071 -85.8392
rradius 29.9931
rwrist -19.4163
rhand -5.72978 12.0521
rfingers 7.12502
rthumb 20.0921 -16.929
lclavicle 1.10077e-014 -1.82882e-014
lhumerus -49.9834 -1.1938 85.8914
lradius 66.7802
lwrist -5.1981
lhand 5.14998 20.9818
lfingers 7.12502
lthumb 30.513 48.4749
rfemur -44.7172 4.58985 31.0357
rtibia 43.8893
rfoot -49.4955 -30.9703
rtoes 49.9257
lfemur -20.7307 15.4093 -26.7667
ltibia 52.0755
lfoot 28.3353 15.9817
ltoes 20.8196
296
root -0.0462674 16.3123 -4.93178 -161.088 -8.60605 179.337
lowerback -16.6366 -0.698446 0.768821
upperback -5.11724 -1.84968 1.76373
thorax 3.9023 -1.21334 1.03985
lowerneck -11.6117 3.0708 -0.982832
upperneck 43.6873 -2.35351 0.91316
head 18.4168 -3.13495 -0.528754
rclavicle -2.16303e-014 -1.98785e-014
rhumerus -43.8157 7.40665 -85.7673
rradius 30.1752
rwrist -19.3575
rhand -5.84191 12.1703
rfingers 7.12502
rthumb 19.9843 -16.8221
lclavicle -2.16303e-014 -1.98785e-014
lhumerus -50.0702 -1.03693 85.9378
lradius 66.9907
lwrist -5.23192
lhand 5.47879 21.3829
lfingers 7.12502
lthumb 30.8265 48.8173
rfemur -44.6676 4.56538 31.0631
rtibia 43.852
rfoot -49.557 -30.9259
rtoes 49.9007
lfemur -20.6925 15.4131 -26.7401
ltibia 52.0414
lfoot 28.4226 15.4837
ltoes 19.3173
297
root -0.0614239 16.3151 -4.94008 -161.09 -8.7139 179.455
lowerback -16.7596 -0.692681 0.985841
upperback -4.99142 -1.87277 1.81982
thorax 4.09736 -1.21806 0.96712
lowerneck -12.072 2.98292 -1.28357
upperneck 43.7313 -2.4296 1.11992
head 18.5785 -3.1642 -0.393091
rclavicle 5.06901e-015 2.62396e-014
rhumerus -43.5119 7.46633 -85.6808
rradius 30.2341
rwrist -19.5751
rhand -5.9043 12.2573
rfingers 7.12502
rthumb 19.9243 -16.7413
lclavicle 5.06901e-015 2.62396e-014
lhumerus -49.7543 -1.01638 85.9994
lradius 67.0039
lwrist -5.02586
lhand 5.52459 21.4647
lfingers 7.12502
lthumb 30.8702 48.8908
rfemur -44.6217 3.98159 31.3641
rtibia 43.8232
rfoot -49.1078 -30.7938
rtoes 49.765
lfemur -20.6302 15.3718 -26.6219
ltibia 52.0309
lfoot 28.2819 15.9047
ltoes 20.4377
298
root -0.0701656 16.3146 -4.94149 -160.98 -8.77855 179.52
lowerback -16.9086 -0.699078 1.09095
upperback -4.96032 -1.9055 1.84657
thorax 4.20805 -1.23396 0.925415
lowerneck -12.3221 2.92573 -1.51605
upperneck 43.7482 -2.4929 1.29449
head 18.665 -3.19302 -0.280962
rclavicle 7.91411e-015 1.03368e-014
rhumerus -43.2247 7.43654 -85.6616
rradius 29.9487
rwrist -19.5611
rhand -6.07144 12.4621
rfingers 7.12502
rthumb 19.7637 -16.5532
lclavicle 7.91411e-015 1.03368e-014
lhumerus -49.5086 -1.00287 86.02
lradius 66.8571
lwrist -4.81902
lhand 5.27049 21.1176
lfingers 7.12502
lthumb 30.6279 48.5893
rfemur -44.7318 3.73367 31.5028
rtibia 43.7919
rfoot -48.847 -30.7497
rtoes 49.7299
lfemur -20.7952 15.287 -26.5995
ltibia 52.0917
lfoot 28.0063 17.0869
ltoes 23.0321
299
root -0.0759827 16.3116 -4.9371 -160.847 -8.72931 179.544
lowerback -16.8614 -0.643688 1.13728
upperback -5.07671 -1.84844 1.77815
thorax 4.0554 -1.21343 0.841052
lowerneck -12.3149 2.9148 -1.3274
upperneck 43.7472 -2.53611 1.21559
head 18.6614 -3.18933 -0.361109
rclavicle -2.56805e-014 -2.22639e-014
rhumerus -43.3486 7.39738 -85.8352
rradius 29.8978
rwrist -19.6821
rhand -6.203 12.4041
rfingers 7.12502
rthumb 19.6372 -16.6241
lclavicle -2.56805e-014 -2.22639e-014
lhumerus -49.4878 -1.09664 85.9151
lradius 66.7552
lwrist -4.93357
lhand 4.97835 20.5014
lfingers 7.12502
lthumb 30.3493 48.0249
rfemur -44.9192 3.83242 31.4847
rtibia 43.7815
rfoot -48.5802 -31.1714
rtoes 49.3897
lfemur -21.0174 15.1894 -26.6823
ltibia 52.1744
lfoot 27.7954 17.7723
ltoes 24.4798
